<mxfile host="app.diagrams.net" modified="2023-07-20T08:30:28.593Z" agent="Mozilla/5.0 (Windows NT 10.0; Win64; x64) AppleWebKit/537.36 (KHTML, like Gecko) Chrome/114.0.0.0 Safari/537.36" version="21.6.3" etag="dW36ba3kGQulLXufUZ5g" type="github">
  <diagram name="Halaman-1" id="1D-T_kamnOW5iwe3u5uC">
    <mxGraphModel>
      <root>
        <mxCell id="0" />
        <mxCell id="1" parent="0" />
      </root>
    </mxGraphModel>
  </diagram>
</mxfile>
